<?xml version="1.0" encoding="utf-8"?>
<!-- Generator: Adobe Illustrator 16.0.0, SVG Export Plug-In . SVG Version: 6.00 Build 0)  -->
<!DOCTYPE svg PUBLIC "-//W3C//DTD SVG 1.1//EN" "http://www.w3.org/Graphics/SVG/1.1/DTD/svg11.dtd">
<svg version="1.1" id="Layer_1" xmlns="http://www.w3.org/2000/svg" xmlns:xlink="http://www.w3.org/1999/xlink" x="0px" y="0px"
	 width="300px" height="95px" viewBox="0 0 300 95" enable-background="new 0 0 300 95" xml:space="preserve">
<g>
	<path fill="#DF790C" d="M105.362,53.352H85.323L81.754,64.79H69.952L89.916,10h11.512l19.671,54.79h-12.021L105.362,53.352z
		 M95.453,23.188h-0.148l-6.921,21.274h14.064L95.453,23.188z"/>
	<path fill="#DF790C" d="M133.217,19.763h-14.425V10h39.782v9.763h-14.427V64.79h-10.931V19.763z"/>
	<path fill="#DF790C" d="M197.576,26.611h-0.148l-9.033,38.179h-11.584L162.674,10h11.659l8.522,40.291h0.148L191.6,10h11.806
		l8.959,40.291h0.146L220.456,10h11.581l-13.989,54.79h-11.583L197.576,26.611z"/>
	<path fill="#FFFFFF" d="M75.593,70.155h1.688l5.555,14.761h-1.864l-1.472-4.16h-6.125l-1.472,4.16h-1.864L75.593,70.155z
		 M76.456,72.234h-0.039l-2.493,7.029h5.025L76.456,72.234z"/>
	<path fill="#FFFFFF" d="M84.473,75.102h1.492v2.16h0.039c0.393-1.042,1.178-2.317,2.827-2.317h0.549v1.608h-0.491
		c-2.002,0-2.886,1.375-2.886,3.69v4.673h-1.531V75.102z"/>
	<path fill="#FFFFFF" d="M95.567,85.191c-3.554,0-5.064-2.571-5.064-5.183c0-2.61,1.767-5.183,5.064-5.183
		c3.553,0,5.063,2.572,5.063,5.183C100.631,82.62,98.865,85.191,95.567,85.191z M95.567,83.815c2.12,0,3.415-1.589,3.415-3.807
		s-1.295-3.808-3.415-3.808c-2.121,0-3.416,1.59-3.416,3.808S93.446,83.815,95.567,83.815z"/>
	<path fill="#FFFFFF" d="M109.491,83.365h-0.04c-0.668,1.256-1.728,1.826-3.122,1.826c-1.433,0-3.278-0.727-3.278-3.633v-6.457
		h1.531v6.046c0,2.04,1.06,2.668,2.159,2.668c1.433,0,2.749-1.099,2.749-3.141v-5.573h1.531v9.814h-1.531V83.365z"/>
	<path fill="#FFFFFF" d="M120.411,78.988c0-2.041-1.061-2.67-2.159-2.67c-1.433,0-2.749,1.099-2.749,3.141v5.457h-1.531v-9.814
		h1.531v1.669h0.039c0.667-1.257,1.728-1.826,3.122-1.826c1.177,0,3.278,0.608,3.278,3.376v6.596h-1.531V78.988z"/>
	<path fill="#FFFFFF" d="M132.41,83.207h-0.04c-0.451,0.767-1.256,1.984-3.277,1.984c-2.709,0-4.731-2.12-4.731-5.183
		c0-3.611,2.493-5.064,4.535-5.064c2.179,0,3.062,1.236,3.474,1.864h0.04v-6.653h1.531v14.761h-1.531V83.207z M129.19,76.318
		c-1.688,0-3.18,1.138-3.18,3.729c0,2.043,1.06,3.769,3.121,3.769c2.062,0,3.278-1.667,3.278-3.728
		C132.41,77.515,130.82,76.318,129.19,76.318z"/>
	<path fill="#FFFFFF" d="M145.513,71.646h-4.476v-1.491h10.601v1.491h-4.476v13.27h-1.649V71.646z"/>
	<path fill="#FFFFFF" d="M159.712,78.988c0-2.041-1.061-2.67-2.161-2.67c-1.432,0-2.748,1.099-2.748,3.141v5.457h-1.531V70.155
		h1.531v6.615h0.039c0.667-1.257,1.729-1.826,3.122-1.826c1.176,0,3.277,0.608,3.277,3.376v6.596h-1.529V78.988z"/>
	<path fill="#FFFFFF" d="M172.791,82.148c-0.845,1.865-2.258,3.043-4.516,3.043c-2.748,0-4.613-2.082-4.613-4.811
		c0-3.297,1.806-5.555,4.691-5.555c2.786,0,4.692,1.768,4.692,5.104v0.434h-7.736c0,2.277,1.395,3.452,3.044,3.452
		c1.768,0,2.532-1.099,2.867-1.902L172.791,82.148z M171.396,79.105c-0.218-1.785-1.236-2.904-3.004-2.904
		c-2.003,0-2.925,1.569-3.043,2.904H171.396z"/>
	<path fill="#FFFFFF" d="M188.384,72.589h-0.038l-3.554,12.327h-1.491l-3.906-14.761h1.745l2.905,12.208h0.041l3.515-12.208h1.529
		l3.515,12.308h0.039l2.904-12.308h1.748l-3.905,14.761h-1.491L188.384,72.589z"/>
	<path fill="#FFFFFF" d="M202.919,85.191c-3.551,0-5.063-2.571-5.063-5.183c0-2.61,1.768-5.183,5.063-5.183
		c3.556,0,5.065,2.572,5.065,5.183C207.984,82.62,206.219,85.191,202.919,85.191z M202.919,83.815c2.121,0,3.417-1.589,3.417-3.807
		s-1.296-3.808-3.417-3.808c-2.119,0-3.415,1.59-3.415,3.808S200.8,83.815,202.919,83.815z"/>
	<path fill="#FFFFFF" d="M210.405,75.102h1.494v2.16h0.038c0.393-1.042,1.178-2.317,2.826-2.317h0.549v1.608h-0.489
		c-2.004,0-2.886,1.375-2.886,3.69v4.673h-1.532V75.102z"/>
	<path fill="#FFFFFF" d="M216.908,70.155h1.53v14.761h-1.53V70.155z"/>
	<path fill="#FFFFFF" d="M228.845,83.207h-0.041c-0.451,0.767-1.258,1.984-3.277,1.984c-2.711,0-4.731-2.12-4.731-5.183
		c0-3.611,2.494-5.064,4.533-5.064c2.181,0,3.062,1.236,3.476,1.864h0.041v-6.653h1.531v14.761h-1.531V83.207z M225.626,76.318
		c-1.691,0-3.182,1.138-3.182,3.729c0,2.043,1.059,3.769,3.12,3.769c2.062,0,3.28-1.667,3.28-3.728
		C228.845,77.515,227.253,76.318,225.626,76.318z"/>
</g>
</svg>
